<?xml version="1.0" encoding="utf-8"?>
<!-- Generator: Adobe Illustrator 19.2.1, SVG Export Plug-In . SVG Version: 6.00 Build 0)  -->
<svg version="1.1" id="Calque_1" xmlns="http://www.w3.org/2000/svg" xmlns:xlink="http://www.w3.org/1999/xlink" x="0px" y="0px"
	 viewBox="0 0 24 24" style="enable-background:new 0 0 24 24;" xml:space="preserve">
<style type="text/css">
	.st0{fill:#FFFFFF;}
</style>
<path class="st0" d="M22,16c0,1.7-4.5,3-10,3S2,17.7,2,16c0-0.8,1.2-1.6,3-2.1V14l0,0l0,0c0,0.6,1.8,2,7,2s7-1.4,7-2v-0.1
	C20.8,14.4,22,15.2,22,16z M18.8,12.8C18.8,10,16.5,6,15,6c-1.2,0-1.7,1-3,1s-1.8-1-3-1c-1.5,0-3.8,4-3.8,6.8
	c0.6,0.7,2.6,1.6,6.8,1.6C16.2,14.5,18.2,13.5,18.8,12.8z"/>
</svg>
